# xmcd CD database file
#
# Track frame offsets:
#	182
#	18057
#	42622
#
# Disc length: 864 seconds
#
# Revision: 3
# Processed by: cddbd v1.5.2PL0 Copyright (c) Steve Scherf et al.
# Submitted via: CDex 1.82
#
DISCID=1b035e03
DTITLE=M. Gi M. Big Time - Hungry for Pamela
DYEAR=1995
DGENRE=Reggae
TTITLE0=Hungry for Pamela (Radio Mix)
TTITLE1=Hungry for Pamela (Extended Calipso Mix)
TTITLE2=Hungry for Pamela (Calipso Mix)
EXTD=Des'ree/You gotta be\nDes'ree/Life\nDes'ree/Feel so high YEAR: 1995
EXTT0=
EXTT1=
EXTT2=
PLAYORDER=
